<svg width="52" height="25" viewBox="0 0 52 25" fill="none" xmlns="http://www.w3.org/2000/svg">
<path fill-rule="evenodd" clip-rule="evenodd" d="M38.5444 0.13623C38.3276 0.226318 38.1306 0.358154 37.9646 0.524414C37.7983 0.69043 37.6665 0.887451 37.5764 1.10425C37.4866 1.32104 37.4402 1.55371 37.4402 1.78857C37.4402 2.02344 37.4866 2.25586 37.5764 2.47266C37.6665 2.6897 37.7983 2.88672 37.9646 3.05249L45.6304 10.7153H1.7854C1.31177 10.7153 0.857666 10.9033 0.522949 11.2383C0.187988 11.573 0 12.0271 0 12.5005C0 12.9739 0.187988 13.428 0.522949 13.7627C0.857666 14.0977 1.31177 14.2856 1.7854 14.2856H45.6304L37.9646 21.9485C37.7781 22.135 37.637 22.3586 37.5486 22.6018C37.4783 22.7957 37.4412 23.0022 37.4412 23.2124C37.4412 23.6865 37.6294 24.1411 37.9646 24.4763C38.2998 24.8118 38.7546 25 39.2288 25C39.7029 25 40.1575 24.8118 40.4927 24.4763L51.2046 13.7644C51.2837 13.6855 51.355 13.5996 51.4177 13.5078C51.4868 13.4067 51.5454 13.2986 51.5928 13.1848C51.6829 12.9678 51.7292 12.7354 51.7292 12.5005C51.7292 12.2656 51.6829 12.0332 51.5928 11.8162C51.5027 11.5994 51.3708 11.4023 51.2046 11.2366L40.4927 0.524414C40.4102 0.44165 40.3198 0.367432 40.2229 0.30249C40.1255 0.237061 40.0217 0.181396 39.9128 0.13623C39.696 0.0463867 39.4636 0 39.2288 0C38.9939 0 38.7612 0.0463867 38.5444 0.13623Z" fill="black"/>
</svg>
