<?xml version="1.0" encoding="utf-8"?><svg viewBox="0 0 963 1087" xmlns="http://www.w3.org/2000/svg" xmlns:xlink="http://www.w3.org/1999/xlink"><style>:root>svg{display:none}:root>svg:target{display:block}</style><svg fill="none" viewBox="0 0 52 25" id="arrow" xmlns="http://www.w3.org/2000/svg"><path fill-rule="evenodd" clip-rule="evenodd" d="M38.544.136a1.79 1.79 0 00-.58 2.916l7.666 7.663H1.785a1.784 1.784 0 100 3.57H45.63l-7.665 7.663a1.788 1.788 0 102.528 2.528l10.712-10.712a1.782 1.782 0 00.388-1.948 1.787 1.787 0 00-.388-.58L40.493.525A1.78 1.78 0 0039.229 0c-.235 0-.468.046-.685.136z" fill="#000"/></svg><svg fill="none" viewBox="0 0 963 1087" id="decore-w" xmlns="http://www.w3.org/2000/svg"><path opacity=".6" d="M28.856-452.987c23.994-32.648 59.984-49.832 107.972-53.268 87.405-6.874 137.106 34.366 149.103 123.719C339.06-23.406 397.33 280.738 459.028 529.895l375.329-716.542c34.277-65.296 77.123-99.663 128.538-103.099 75.405-5.155 121.685 42.958 140.535 144.339 42.84 228.537 97.69 422.708 162.81 587.667 44.56-436.454 119.97-750.908 226.23-945.079 25.71-48.113 63.41-72.169 113.11-75.606 39.42-3.436 75.41 8.592 107.97 34.367 32.57 25.775 49.7 58.422 53.13 97.944 1.72 30.93-3.43 56.705-17.14 82.48-66.84 123.719-121.68 331.637-166.24 620.315-42.84 280.087-58.27 498.314-47.99 654.682 3.43 42.958-3.42 80.761-20.56 113.407-20.57 37.81-51.42 58.43-90.83 61.86-44.56 3.44-90.84-17.18-135.4-63.58-159.38-163.237-286.21-407.239-378.754-732.002-111.399 219.946-193.663 384.905-246.792 494.877-101.116 194.171-186.808 293.835-258.788 298.985-46.274 3.44-85.692-36.08-119.969-118.56C196.812 741.249 102.551 306.513 1.435-337.859c-5.142-44.677 3.427-84.198 27.421-115.128z" fill="#fff"/></svg><svg fill="none" viewBox="0 0 21 20" id="fb" xmlns="http://www.w3.org/2000/svg"><path d="M10.617 0C5.095 0 .618 4.477.618 9.999c0 4.99 3.656 9.126 8.437 9.879V12.89h-2.54V9.999h2.54V7.796c0-2.508 1.493-3.891 3.776-3.891 1.094 0 2.24.195 2.24.195v2.459h-1.264c-1.24 0-1.628.772-1.628 1.563v1.875h2.771l-.443 2.891H12.18v6.988c4.781-.749 8.437-4.886 8.437-9.877C20.616 4.477 16.14 0 10.617 0z" fill="var(--social-color, #272D4E)"/></svg><svg fill="none" viewBox="0 0 41 41" id="footer__icon_1" xmlns="http://www.w3.org/2000/svg"><path d="M20.5 0C9.178 0 0 9.178 0 20.5S9.178 41 20.5 41 41 31.822 41 20.5 31.822 0 20.5 0zm0 4.454c8.862 0 16.043 7.186 16.043 16.046S29.362 36.543 20.5 36.543c-8.862 0-16.043-7.183-16.043-16.043S11.638 4.454 20.5 4.454zm7.855 6.311L16.474 22.65l-3.854-3.854-3.781 3.779 3.853 3.853 3.807 3.806 3.778-3.78 11.884-11.882-3.806-3.806z" fill="var(--footer-icon, #fff)"/></svg><svg fill="none" viewBox="0 0 41 41" id="footer__icon_2" xmlns="http://www.w3.org/2000/svg"><path fill-rule="evenodd" clip-rule="evenodd" d="M0 20.5C0 9.178 9.178 0 20.5 0S41 9.178 41 20.5 31.822 41 20.5 41 0 31.822 0 20.5zm5.52-5.753a16.096 16.096 0 019.227-9.23l2.268 5.389a10.25 10.25 0 00-6.109 6.088l-5.387-2.247zm9.21 20.727a16.093 16.093 0 01-9.21-9.22l5.386-2.228a10.183 10.183 0 006.088 6.068l-2.264 5.38zm20.744-9.204a16.093 16.093 0 01-9.202 9.204l-2.225-5.38a10.204 10.204 0 006.047-6.088l5.38 2.264zM26.28 5.527a16.096 16.096 0 019.194 9.201l-5.38 2.225a10.213 10.213 0 00-6.047-6.026l2.233-5.4zM14.35 20.5a6.142 6.142 0 006.15 6.15 6.142 6.142 0 006.15-6.15 6.142 6.142 0 00-6.15-6.15 6.142 6.142 0 00-6.15 6.15z" fill="var(--footer-icon, #fff)"/></svg><svg fill="none" viewBox="0 0 41 41" id="footer__icon_3" xmlns="http://www.w3.org/2000/svg"><path fill-rule="evenodd" clip-rule="evenodd" d="M0 20.5C0 9.178 9.178 0 20.5 0S41 9.178 41 20.5 31.822 41 20.5 41 0 31.822 0 20.5zm36.543 0c0-8.86-7.181-16.046-16.043-16.046-8.862 0-16.043 7.186-16.043 16.046S11.638 36.543 20.5 36.543c8.862 0 16.043-7.183 16.043-16.043zm-10.112-5.877v3.198c1.271 0 2.542 1.28 2.542 2.772v7.462c0 1.28-1.27 2.558-2.753 2.558H14.569c-1.271 0-2.542-1.279-2.542-2.771V20.38c0-1.28 1.27-2.559 2.542-2.559v-3.198c0-2.984 2.965-5.33 5.931-5.33s5.931 2.346 5.931 5.33zm-9.108 3.198h6.355v-3.198c0-1.705-1.483-2.771-3.178-2.771-1.695 0-3.177 1.066-3.177 2.771v3.198z" fill="var(--footer-icon, #fff)"/></svg><svg fill="none" viewBox="0 0 21 20" id="inst" xmlns="http://www.w3.org/2000/svg"><path d="M10.732 6.665A3.342 3.342 0 007.397 10a3.342 3.342 0 003.335 3.335A3.342 3.342 0 0014.067 10a3.342 3.342 0 00-3.335-3.335zM20.734 10c0-1.38.012-2.75-.065-4.128-.078-1.6-.443-3.022-1.614-4.193C17.882.506 16.463.143 14.862.066 13.482-.012 12.112 0 10.734 0c-1.38 0-2.749-.013-4.127.065-1.602.077-3.022.443-4.193 1.613C1.24 2.853.878 4.271.8 5.872.723 7.253.735 8.622.735 10c0 1.378-.012 2.75.065 4.128.078 1.6.443 3.022 1.614 4.193 1.173 1.173 2.591 1.536 4.193 1.613 1.38.078 2.749.065 4.127.065 1.381 0 2.75.013 4.128-.065 1.601-.077 3.022-.443 4.193-1.613 1.173-1.174 1.536-2.592 1.614-4.193.08-1.379.065-2.747.065-4.128zm-10.002 5.131A5.124 5.124 0 015.6 10a5.124 5.124 0 015.13-5.131c2.84 0 5.132 2.292 5.132 5.131a5.124 5.124 0 01-5.131 5.131zm5.341-9.274a1.197 1.197 0 01-1.198-1.198c0-.663.535-1.198 1.198-1.198a1.197 1.197 0 01.848 2.046 1.198 1.198 0 01-.848.35z" fill="var(--social-color, #272D4E)"/></svg><svg fill="none" viewBox="0 0 169 35" id="logo" xmlns="http://www.w3.org/2000/svg"><path fill-rule="evenodd" clip-rule="evenodd" d="M5.313 0H51.91a5.334 5.334 0 015.336 5.336v17.787a5.334 5.334 0 01-5.336 5.336H35.2l2.293 5.617-10.087-5.617H5.336A5.334 5.334 0 010 23.123V5.336C-.023 2.411 2.364 0 5.313 0z" fill="var(--bgc-woo, #9B5C8F)"/><path d="M2.855 4.844c.328-.444.82-.678 1.475-.725 1.194-.094 1.872.468 2.036 1.685.726 4.891 1.521 9.034 2.364 12.428l5.125-9.76c.468-.89 1.053-1.357 1.756-1.404 1.03-.07 1.661.585 1.919 1.966.585 3.112 1.334 5.757 2.223 8.004.609-5.945 1.638-10.228 3.09-12.872.35-.656.865-.983 1.544-1.03.538-.047 1.03.117 1.475.468.444.351.678.796.725 1.334a2.03 2.03 0 01-.234 1.123c-.913 1.686-1.662 4.518-2.27 8.45-.585 3.814-.796 6.787-.655 8.916.046.585-.047 1.1-.281 1.545-.281.515-.702.796-1.24.842-.61.047-1.241-.234-1.85-.866-2.176-2.223-3.908-5.546-5.172-9.97a440.88 440.88 0 00-3.37 6.74c-1.38 2.645-2.551 4.003-3.534 4.073-.632.047-1.17-.492-1.638-1.615C5.149 21.11 3.862 15.19 2.48 6.413c-.07-.609.047-1.147.374-1.569zM53.174 8.519c-.843-1.474-2.083-2.364-3.745-2.715a6.144 6.144 0 00-1.264-.14c-2.246 0-4.072 1.17-5.5 3.51-1.217 1.99-1.825 4.19-1.825 6.6 0 1.802.374 3.347 1.123 4.634.843 1.475 2.083 2.364 3.745 2.715.445.094.866.14 1.264.14 2.27 0 4.095-1.17 5.5-3.51 1.217-2.013 1.825-4.213 1.825-6.623 0-1.826-.374-3.347-1.123-4.611zm-2.95 6.483c-.327 1.545-.912 2.691-1.778 3.464-.679.608-1.31.866-1.896.749-.561-.117-1.03-.609-1.38-1.522a5.939 5.939 0 01-.422-2.13c0-.585.047-1.17.164-1.708.21-.96.609-1.896 1.24-2.785.773-1.147 1.592-1.615 2.434-1.451.562.117 1.03.608 1.381 1.521.281.726.422 1.451.422 2.13 0 .609-.07 1.194-.164 1.732zM38.5 8.519c-.843-1.474-2.106-2.364-3.745-2.715a6.144 6.144 0 00-1.264-.14c-2.246 0-4.072 1.17-5.5 3.51-1.216 1.99-1.825 4.19-1.825 6.6 0 1.802.375 3.347 1.123 4.634.843 1.475 2.083 2.364 3.745 2.715.445.094.866.14 1.264.14 2.27 0 4.096-1.17 5.5-3.51 1.217-2.013 1.825-4.213 1.825-6.623 0-1.826-.374-3.347-1.123-4.611zm-2.949 6.483c-.328 1.545-.913 2.691-1.779 3.464-.678.608-1.31.866-1.895.749-.562-.117-1.03-.609-1.381-1.522a5.94 5.94 0 01-.421-2.13c0-.585.046-1.17.163-1.708.21-.96.609-1.896 1.24-2.785.773-1.147 1.592-1.615 2.435-1.451.561.117 1.03.608 1.38 1.521a5.94 5.94 0 01.422 2.13c0 .609-.047 1.194-.164 1.732z" fill="var(--words-woo, #fff)"/><path d="M63.167 8.308c-1.568 1.545-2.34 3.511-2.34 5.898 0 2.551.773 4.634 2.317 6.202 1.545 1.568 3.557 2.364 6.062 2.364.725 0 1.544-.117 2.434-.374v-3.792c-.82.234-1.522.351-2.13.351-1.24 0-2.223-.421-2.972-1.24-.75-.843-1.124-1.966-1.124-3.394 0-1.334.375-2.434 1.1-3.276.75-.866 1.662-1.288 2.785-1.288.726 0 1.498.118 2.34.351V6.32c-.772-.212-1.638-.305-2.55-.305-2.388-.024-4.353.749-5.922 2.293zM79.41 5.991c-2.153 0-3.838.726-5.055 2.154-1.217 1.427-1.803 3.44-1.803 6.014 0 2.786.609 4.915 1.803 6.39 1.193 1.474 2.948 2.223 5.242 2.223 2.224 0 3.932-.749 5.126-2.223 1.193-1.475 1.802-3.558 1.802-6.226s-.609-4.727-1.826-6.178c-1.24-1.428-2.995-2.154-5.29-2.154zm1.849 12.17c-.421.656-1.053.983-1.85.983-.748 0-1.31-.327-1.708-.982-.397-.656-.585-1.966-.585-3.956 0-3.066.773-4.587 2.34-4.587 1.639 0 2.481 1.545 2.481 4.658-.023 1.919-.257 3.23-.678 3.885zM98.086 6.437l-.842 3.58c-.211.914-.422 1.85-.609 2.81l-.468 2.48c-.445-2.48-1.053-5.43-1.825-8.87h-5.43l-2.036 15.938h4.072l1.1-10.976 2.785 10.976h2.902l2.668-10.953 1.147 10.953h4.26l-2.154-15.938h-5.57zm19.496 0l-.843 3.58c-.21.914-.421 1.85-.608 2.81l-.468 2.48c-.445-2.48-1.054-5.43-1.826-8.87h-5.43l-2.036 15.938h4.073l1.099-10.976 2.786 10.976h2.902l2.644-10.953 1.147 10.953h4.26l-2.154-15.938h-5.546zm13.246 9.643h3.815v-3.3h-3.815V9.853h4.4V6.46h-8.706v15.938h8.73v-3.394h-4.424v-2.925zm16.547-2.528c.445-.726.679-1.475.679-2.247 0-1.498-.585-2.691-1.756-3.557-1.17-.866-2.785-1.31-4.797-1.31h-5.009v15.937h4.306V15.12h.071l3.487 7.255h4.54l-3.44-7.185c.819-.374 1.474-.912 1.919-1.638zm-6.6-.258v-3.79c1.03.022 1.755.186 2.2.514.445.328.655.843.655 1.591 0 1.1-.959 1.662-2.855 1.685zm9.806-4.985c-1.568 1.545-2.34 3.511-2.34 5.898 0 2.551.772 4.634 2.317 6.202 1.545 1.568 3.557 2.364 6.061 2.364.726 0 1.545-.117 2.434-.374v-3.792c-.819.234-1.521.351-2.129.351-1.241 0-2.224-.421-2.973-1.24-.749-.843-1.123-1.966-1.123-3.394 0-1.334.374-2.434 1.1-3.276.749-.866 1.662-1.288 2.785-1.288.726 0 1.498.118 2.34.351V6.32c-.772-.212-1.638-.305-2.551-.305-2.363-.024-4.353.749-5.921 2.293zm13.972 10.65v-2.903h3.815v-3.3h-3.815V9.83h4.424V6.436h-8.707v15.938H169v-3.393h-4.447v-.024z" fill="var(--txt-commerce, #000)"/></svg><svg fill="none" viewBox="0 0 16 17" id="search" xmlns="http://www.w3.org/2000/svg"><path d="M15.781 13.834l-3.115-3.115a.749.749 0 00-.532-.219h-.509A6.468 6.468 0 0013 6.5C13 2.91 10.09 0 6.5 0S0 2.91 0 6.5 2.91 13 6.5 13c1.51 0 2.897-.512 4-1.375v.51c0 .2.078.39.219.53l3.115 3.116a.747.747 0 001.06 0l.884-.884a.753.753 0 00.003-1.063zM6.5 10.5c-2.21 0-4-1.787-4-4 0-2.21 1.787-4 4-4 2.21 0 4 1.787 4 4 0 2.21-1.787 4-4 4z" fill="var(--search-color, #272D4E)"/></svg><svg fill="none" viewBox="0 0 25 20" id="tw" xmlns="http://www.w3.org/2000/svg"><path d="M24.618 2.376c-.905.39-1.89.671-2.905.78a5.032 5.032 0 002.219-2.78 9.96 9.96 0 01-3.201 1.219A5.033 5.033 0 0017.044 0 5.044 5.044 0 0012 5.047c0 .39.047.781.124 1.157A14.337 14.337 0 011.722.924a5.01 5.01 0 00-.686 2.546c0 1.752.89 3.296 2.248 4.205a5.089 5.089 0 01-2.281-.642v.062a5.046 5.046 0 004.044 4.952 5.34 5.34 0 01-1.328.172c-.328 0-.64-.033-.953-.077.64 2 2.5 3.453 4.716 3.5a10.111 10.111 0 01-6.263 2.157c-.423 0-.814-.015-1.219-.062A14.286 14.286 0 007.749 20c9.278 0 14.355-7.686 14.355-14.358 0-.219 0-.438-.015-.657a10.865 10.865 0 002.53-2.61z" fill="var(--social-color, #272D4E)"/></svg><svg fill="none" viewBox="0 0 21 20" id="wifi" xmlns="http://www.w3.org/2000/svg"><path fill-rule="evenodd" clip-rule="evenodd" d="M2.64 0c9.951 0 18.05 8.076 18.093 18.018h.001v1.052h-.012a1.041 1.041 0 01-.911.918V20h-1.87v-.002a1.043 1.043 0 01-1.016-.928h-.012v-1.052h.01c-.041-7.842-6.432-14.21-14.284-14.21h-.022l-.02-.002v.015H1.547V3.81a1.041 1.041 0 01-.917-.911H.616v-1.87h.002A1.044 1.044 0 011.546.011V0h1.052v.002h.019L2.639 0zm0 7.206l-.023.001-.019.001v-.002H1.546v.012a1.044 1.044 0 00-.928 1.015H.616v1.87H.63a1.041 1.041 0 00.917.912v.012h1.052v-.014h.019a.28.28 0 00.022.002c3.878 0 7.037 3.134 7.079 7.003h-.01v1.052h.012a1.044 1.044 0 001.015.928V20h1.87v-.013a1.042 1.042 0 00.912-.917h.011v-1.052h-.001c-.042-5.97-4.91-10.812-10.888-10.812zm.826 7.333a2.666 2.666 0 00-1.885 4.554 2.667 2.667 0 101.885-4.554z" fill="var(--social-color, #272D4E)"/></svg></svg>