<?xml version="1.0" standalone="no"?>
<!DOCTYPE svg PUBLIC "-//W3C//DTD SVG 20010904//EN"
 "http://www.w3.org/TR/2001/REC-SVG-20010904/DTD/svg10.dtd">
<svg version="1.0" xmlns="http://www.w3.org/2000/svg"
 width="287.000000pt" height="287.000000pt" viewBox="0 0 287.000000 287.000000"
 preserveAspectRatio="xMidYMid meet">
<metadata>
Created by potrace 1.11, written by Peter Selinger 2001-2013
</metadata>
<g transform="translate(0.000000,287.000000) scale(0.100000,-0.100000)"
fill="#000000" stroke="none">
<path d="M185 2278 c-82 -30 -142 -89 -170 -167 -23 -65 -22 -996 1 -1063 21
-62 74 -121 136 -152 l52 -26 580 0 581 0 250 -139 c138 -77 251 -138 253
-137 1 2 -22 63 -53 136 -30 74 -55 135 -55 137 0 2 201 3 448 3 l447 0 50 24
c60 28 116 87 139 147 15 39 16 96 14 554 l-3 510 -27 47 c-16 25 -45 60 -65
77 -78 64 -5 61 -1337 60 -839 0 -1220 -4 -1241 -11z m1117 -178 c36 -37 35
-71 -6 -168 -66 -155 -126 -517 -126 -764 0 -111 -14 -154 -55 -164 -61 -15
-118 27 -200 150 -62 93 -94 159 -140 290 l-32 90 -109 -215 c-175 -347 -253
-400 -324 -220 -31 79 -84 299 -124 511 -59 319 -68 383 -57 412 27 70 143 83
175 20 7 -15 19 -65 25 -112 15 -105 76 -427 94 -495 l13 -50 16 25 c8 14 68
126 132 250 65 124 127 235 139 247 33 34 77 39 109 13 29 -22 33 -35 69 -190
11 -52 35 -138 52 -190 l31 -95 8 55 c53 347 107 540 170 607 33 36 101 32
140 -7z m505 -126 c104 -50 162 -156 171 -310 12 -220 -100 -449 -251 -514
-105 -46 -269 -9 -333 75 -53 70 -77 144 -82 250 -6 155 35 292 121 406 93
121 241 158 374 93z m722 5 c134 -59 205 -225 180 -421 -23 -182 -118 -347
-234 -403 -61 -29 -166 -32 -237 -6 -193 73 -256 371 -133 627 96 199 257 277
424 203z"/>
<path d="M1599 1761 c-80 -83 -113 -220 -80 -333 26 -91 79 -119 146 -78 122
76 159 334 63 437 -36 38 -74 31 -129 -26z"/>
<path d="M2346 1779 c-109 -95 -140 -323 -58 -420 27 -32 58 -37 100 -15 97
51 156 230 118 360 -31 106 -92 135 -160 75z"/>
</g>
</svg>
